<?xml version="1.0" standalone="no"?>
<!DOCTYPE svg PUBLIC "-//W3C//DTD SVG 20010904//EN"
 "http://www.w3.org/TR/2001/REC-SVG-20010904/DTD/svg10.dtd">
<svg version="1.0" xmlns="http://www.w3.org/2000/svg"
 width="632.000000pt" height="704.000000pt" viewBox="0 0 632.000000 704.000000"
 preserveAspectRatio="xMidYMid meet">

<g transform="translate(0.000000,704.000000) scale(0.100000,-0.100000)"
fill="#000000" stroke="none">
<path d="M1036 6823 c-10 -10 -7 -193 4 -193 5 0 10 35 12 77 l3 77 58 -78
c32 -42 62 -74 67 -71 13 8 13 182 0 190 -6 4 -10 -22 -10 -69 0 -42 -3 -76
-7 -76 -5 0 -30 32 -57 71 -54 75 -60 82 -70 72z"/>
<path d="M1294 6820 c-56 -22 -72 -108 -30 -157 20 -23 32 -28 69 -28 55 0 77
17 77 61 0 33 -1 34 -40 34 -22 0 -40 -4 -40 -10 0 -5 14 -10 30 -10 23 0 30
-4 30 -20 0 -40 -62 -52 -104 -19 -36 28 -36 80 0 116 25 25 52 27 97 8 27
-12 20 11 -8 23 -30 14 -51 14 -81 2z"/>
<path d="M1847 6823 c-4 -3 -7 -48 -7 -100 l0 -93 60 0 c33 0 60 4 60 10 0 6
-22 10 -50 10 l-50 0 0 35 c0 34 1 35 41 35 24 0 38 4 34 10 -3 6 -22 10 -41
10 -32 0 -34 2 -34 35 0 35 0 35 45 35 25 0 45 5 45 10 0 11 -93 14 -103 3z"/>
<path d="M2010 6731 c0 -118 18 -138 22 -25 l3 77 54 -77 c30 -42 58 -76 63
-76 4 0 8 43 8 95 0 111 -18 130 -22 23 l-3 -73 -48 66 c-76 108 -77 108 -77
-10z"/>
<path d="M2308 6824 c-5 -4 -8 -49 -8 -101 l0 -93 34 0 c77 0 126 41 126 104
0 41 -48 85 -100 92 -25 3 -48 2 -52 -2z m86 -25 c31 -14 49 -57 40 -93 -7
-30 -49 -56 -89 -56 -25 0 -25 1 -25 80 0 78 1 80 25 80 13 0 35 -5 49 -11z"/>
<path d="M2504 6815 c-7 -17 1 -121 11 -147 9 -23 57 -40 89 -32 37 9 56 51
56 124 0 84 -17 75 -22 -11 -4 -74 -19 -99 -59 -99 -35 0 -49 28 -49 100 0 66
-13 99 -26 65z"/>
<path d="M2770 6823 c-40 -15 -60 -46 -60 -92 1 -70 42 -108 105 -97 35 7 70
36 43 36 -8 0 -19 -5 -25 -11 -7 -7 -25 -9 -48 -5 -71 14 -81 119 -14 146 23
10 36 10 55 1 36 -16 52 -14 34 4 -17 17 -68 27 -90 18z"/>
<path d="M2985 6820 c-4 -6 7 -10 24 -10 l31 0 0 -90 c0 -116 18 -118 22 -2 3
87 3 87 31 90 15 2 25 8 22 13 -8 12 -122 12 -130 -1z"/>
<path d="M608 6809 c-21 -12 -78 -113 -78 -138 0 -23 13 -33 32 -26 21 9 98
116 98 136 0 24 -30 40 -52 28z"/>
<path d="M1460 6750 c0 -62 3 -74 25 -95 29 -30 64 -32 96 -6 20 16 24 30 27
95 3 51 1 76 -7 76 -7 0 -11 -23 -11 -63 0 -71 -18 -107 -54 -107 -40 0 -56
30 -56 103 0 38 -4 67 -10 67 -6 0 -10 -30 -10 -70z"/>
<path d="M1665 6793 c10 -16 24 -37 32 -48 7 -11 13 -41 13 -67 0 -27 5 -48
10 -48 6 0 10 21 10 46 0 29 7 56 19 72 31 46 43 72 31 72 -6 0 -20 -16 -31
-35 -12 -19 -25 -35 -30 -35 -5 0 -17 16 -26 35 -9 19 -23 35 -31 35 -12 0
-11 -5 3 -27z"/>
<path d="M3189 6793 c-32 -83 -59 -156 -59 -159 0 -14 19 0 28 21 10 21 18 25
55 25 38 0 45 -4 56 -26 6 -15 15 -24 18 -20 10 10 -60 186 -74 186 -8 0 -18
-12 -24 -27z m39 -30 c5 -16 13 -36 17 -45 6 -15 1 -18 -29 -18 -41 0 -40 -1
-24 51 13 46 22 49 36 12z"/>
<path d="M3330 6773 c23 -35 30 -59 30 -95 0 -26 5 -48 10 -48 6 0 10 19 10
43 0 31 9 57 30 90 33 52 35 57 21 57 -5 0 -19 -16 -31 -35 -12 -19 -25 -35
-29 -35 -4 0 -16 16 -27 35 -10 19 -24 35 -31 35 -8 0 -1 -19 17 -47z"/>
<path d="M5860 6665 l-44 -45 -41 40 c-37 36 -75 52 -75 32 0 -9 103 -112 112
-112 10 0 108 99 108 109 0 25 -20 16 -60 -24z"/>
<path d="M244 6672 c-27 -18 -22 -43 18 -94 54 -70 68 -81 85 -67 21 18 16 35
-28 104 -40 63 -52 73 -75 57z"/>
<path d="M633 6668 c-13 -16 -26 -159 -17 -181 8 -21 50 -22 62 -2 4 9 4 50 0
93 -9 86 -13 102 -26 102 -5 0 -14 -6 -19 -12z"/>
<path d="M367 6643 c-22 -21 -3 -42 64 -72 77 -34 96 -36 113 -8 17 26 -4 49
-56 63 -76 19 -114 25 -121 17z"/>
<path d="M733 6523 c-7 -2 -13 -13 -13 -24 0 -15 17 -28 66 -49 78 -36 90 -37
104 -9 16 29 -9 54 -68 68 -26 7 -54 14 -62 16 -8 2 -21 1 -27 -2z"/>
<path d="M387 6495 c-8 -8 -31 -44 -52 -80 -29 -53 -34 -69 -25 -81 7 -7 16
-14 21 -14 12 0 119 131 119 146 0 14 -27 44 -40 44 -5 0 -15 -7 -23 -15z"/>
<path d="M673 6406 c-62 -15 -85 -32 -81 -59 6 -40 29 -40 111 -3 59 27 78 40
75 54 -4 22 -38 24 -105 8z"/>
<path d="M456 6354 c-9 -8 -16 -21 -16 -28 0 -16 107 -146 121 -146 34 0 4 93
-53 166 -23 28 -31 30 -52 8z"/>
<path d="M1061 6346 c-30 -32 -44 -97 -32 -143 24 -85 104 -112 155 -52 22 26
26 40 26 94 0 54 -4 68 -26 94 -34 40 -89 43 -123 7z m96 -22 c23 -23 25 -31
21 -90 -2 -35 -8 -68 -13 -73 -23 -21 -52 -21 -78 0 -24 18 -27 27 -27 80 0
50 4 64 25 84 30 31 40 31 72 -1z"/>
<path d="M1285 6345 c-33 -32 -33 -78 1 -112 25 -25 51 -27 98 -8 20 9 20 8 0
-25 -10 -18 -34 -40 -51 -49 -38 -19 -46 -46 -10 -35 68 21 107 77 107 153 0
66 -30 101 -85 101 -25 0 -44 -8 -60 -25z m93 -11 c32 -22 30 -71 -3 -86 -18
-8 -35 -9 -53 -2 -22 8 -27 15 -27 44 0 27 6 37 25 47 32 16 31 16 58 -3z"/>
<path d="M1495 6350 c-16 -18 -16 -20 -2 -20 9 0 28 5 41 12 22 9 29 8 46 -7
30 -27 22 -58 -17 -70 -41 -12 -42 -21 -3 -30 37 -8 55 -37 40 -64 -15 -29
-45 -34 -85 -15 -43 20 -59 10 -26 -17 26 -21 81 -25 112 -8 11 5 24 22 30 37
8 21 6 31 -11 54 -19 26 -20 30 -5 50 33 49 2 98 -63 98 -26 0 -45 -7 -57 -20z"/>
<path d="M1699 6350 c-20 -16 -21 -19 -7 -20 9 0 28 5 41 11 36 16 69 -4 65
-39 -2 -21 -11 -29 -35 -37 -35 -10 -44 -25 -15 -25 10 0 28 -7 40 -16 30 -20
25 -54 -9 -73 -23 -13 -29 -12 -59 2 -41 21 -54 12 -21 -14 74 -60 187 25 121
91 -19 19 -19 22 -5 36 23 23 19 70 -7 88 -31 22 -81 20 -109 -4z"/>
<path d="M1905 6356 c-27 -19 -12 -32 21 -17 31 14 60 7 74 -19 14 -27 2 -50
-31 -57 -42 -8 -44 -20 -5 -27 19 -4 37 -14 40 -22 22 -56 -24 -89 -82 -58
-39 21 -56 10 -23 -17 28 -23 88 -25 119 -3 26 18 30 69 7 94 -13 15 -13 20 1
49 16 31 15 34 -3 59 -24 32 -86 42 -118 18z"/>
<path d="M2122 6354 c-26 -18 -30 -65 -7 -84 14 -12 13 -15 -5 -32 -19 -18
-24 -35 -21 -68 6 -48 112 -69 151 -30 26 26 26 72 0 95 -17 16 -18 20 -5 38
20 29 19 53 -5 77 -24 24 -77 26 -108 4z m82 -17 c37 -27 1 -75 -47 -63 -45
11 -29 74 19 76 5 0 18 -6 28 -13z m10 -113 c23 -23 20 -51 -9 -70 -36 -23
-79 -7 -83 31 -6 48 57 75 92 39z"/>
<path d="M2331 6344 c-25 -32 -25 -33 -5 -62 14 -21 14 -24 -5 -48 -27 -35
-26 -59 4 -89 18 -19 35 -25 65 -25 30 0 47 6 65 25 30 30 31 54 4 89 -18 23
-19 28 -5 47 45 66 -73 126 -123 63z m95 -15 c25 -28 8 -54 -36 -54 -44 0 -61
26 -36 54 11 12 27 21 36 21 9 0 25 -9 36 -21z m8 -108 c23 -26 17 -52 -17
-71 -24 -13 -30 -13 -54 0 -16 9 -29 24 -31 34 -5 25 27 56 58 56 15 0 35 -9
44 -19z"/>
<path d="M2539 6351 c-32 -26 -16 -39 20 -18 35 20 80 9 82 -20 3 -38 -4 -50
-62 -108 -32 -33 -59 -66 -59 -73 0 -8 24 -12 80 -12 47 0 80 4 80 10 0 6 -22
10 -48 10 -27 0 -52 3 -55 7 -4 3 16 30 43 59 41 43 50 59 50 88 0 68 -77 101
-131 57z"/>
<path d="M2755 6344 c-47 -50 -42 -174 8 -209 25 -17 70 -20 98 -5 45 25 63
117 35 185 -26 60 -98 76 -141 29z m96 -13 c21 -17 24 -28 24 -86 0 -58 -3
-69 -24 -86 -29 -24 -46 -24 -70 0 -43 43 -35 162 12 181 31 12 32 12 58 -9z"/>
<path d="M2977 6363 c-4 -3 -7 -32 -7 -64 l0 -59 43 6 c34 5 45 2 61 -15 44
-49 -17 -108 -81 -77 -18 8 -35 11 -38 6 -9 -15 38 -40 78 -40 68 0 111 72 73
122 -17 23 -64 40 -87 33 -16 -5 -19 -1 -19 29 0 30 4 36 23 37 12 1 26 1 31
0 18 -4 56 9 56 19 0 11 -123 14 -133 3z"/>
<path d="M317 6285 c-26 -7 -54 -19 -62 -25 -21 -18 -18 -47 5 -60 29 -15 155
46 155 75 0 25 -32 29 -98 10z"/>
<path d="M626 6272 c-3 -5 -8 -45 -12 -89 -6 -76 -5 -81 15 -93 39 -20 53 3
50 84 -1 39 -6 79 -11 89 -9 18 -33 23 -42 9z"/>
<path d="M987 5403 c-4 -3 -7 -188 -7 -410 l0 -403 410 0 410 0 -2 408 -3 407
-401 3 c-220 1 -403 -1 -407 -5z m698 -404 l0 -294 -295 0 -295 0 -3 292 c-2
271 -1 292 15 296 10 3 144 4 298 3 l280 -2 0 -295z"/>
<path d="M1206 5154 c-4 -14 -6 -95 -5 -179 1 -126 4 -155 16 -159 18 -7 326
-8 345 -1 12 5 14 89 8 358 0 4 -81 7 -179 7 l-179 0 -6 -26z"/>
<path d="M1926 5403 c-3 -4 -6 -28 -6 -55 l0 -48 43 -1 c23 -1 74 -2 112 -2
l70 -1 3 57 3 56 -109 0 c-60 0 -112 -3 -116 -6z"/>
<path d="M2637 5404 c-4 -4 -7 -29 -7 -56 0 -48 0 -48 35 -49 19 -1 43 -2 53
-3 14 -1 17 8 17 54 l0 55 -45 3 c-25 2 -49 0 -53 -4z"/>
<path d="M3334 5397 c-2 -7 -3 -60 -1 -120 l2 -107 -57 0 -58 0 0 -55 0 -55
58 0 58 0 -1 -57 0 -58 55 0 55 0 0 118 0 117 58 0 57 0 0 58 0 57 65 1 65 1
0 -58 0 -59 118 0 117 0 0 -117 0 -118 55 0 55 0 0 118 0 117 58 0 58 0 -3
113 -3 112 -50 0 -50 0 0 -58 0 -57 -65 0 -65 0 0 57 0 58 -288 2 c-213 1
-289 -2 -293 -10z"/>
<path d="M4517 5403 c-4 -3 -7 -188 -7 -410 l0 -403 410 0 410 0 -2 408 -3
407 -401 3 c-220 1 -403 -1 -407 -5z m576 -112 l127 -1 0 -295 0 -295 -297 2
-298 3 -3 285 c-1 157 0 290 2 296 3 9 51 11 173 9 92 -2 225 -4 296 -4z"/>
<path d="M4740 5168 c0 -7 -1 -89 -3 -183 l-2 -170 180 4 c99 1 181 4 182 5 2
2 5 275 3 334 0 22 0 22 -180 22 -137 0 -180 -3 -180 -12z"/>
<path d="M2987 5283 c-4 -3 -7 -28 -7 -55 l0 -48 115 0 115 0 0 55 0 55 -108
0 c-60 0 -112 -3 -115 -7z"/>
<path d="M4280 5171 l0 -121 -60 0 -60 0 0 -110 0 -110 55 0 55 0 0 58 0 57
57 0 58 0 0 170 0 170 -52 3 -53 3 0 -120z"/>
<path d="M1921 5000 l1 -170 59 0 59 0 0 -60 0 -60 55 0 55 0 0 60 0 60 120 0
120 0 -3 115 -2 115 63 0 62 0 0 -60 0 -60 55 0 55 0 0 115 0 115 -172 -2
-173 -3 0 -113 0 -112 -62 0 -63 0 0 55 0 55 -60 0 -60 0 0 60 0 60 -55 0 -54
0 0 -170z"/>
<path d="M2864 5155 c-4 -9 -4 -36 -1 -60 l5 -45 -59 0 -59 0 0 -110 0 -110
55 0 55 0 0 55 0 54 58 3 57 3 0 110 0 110 -53 3 c-41 2 -54 -1 -58 -13z"/>
<path d="M3690 4994 l0 -55 53 3 52 3 3 53 3 52 -55 0 -56 0 0 -56z"/>
<path d="M2987 4933 c-4 -3 -7 -28 -7 -55 l0 -48 55 0 55 0 0 55 0 55 -48 0
c-27 0 -52 -3 -55 -7z"/>
<path d="M3577 4934 c-4 -4 -7 -31 -7 -60 l0 -53 -57 -3 -58 -3 -3 -52 -3 -53
60 0 61 0 0 -120 0 -119 -57 -3 -58 -3 0 -55 0 -55 -60 -5 -60 -5 0 -110 0
-110 113 -3 112 -3 0 61 0 60 65 0 65 0 0 -60 0 -60 55 0 55 0 0 60 0 60 60 0
60 0 -3 113 -2 112 -52 3 -53 3 0 -60 0 -61 -65 0 -65 0 0 60 0 59 58 3 57 3
0 55 0 55 -52 0 c-28 0 -54 3 -57 6 -4 4 -8 82 -9 175 l-2 169 -45 3 c-25 2
-49 0 -53 -4z"/>
<path d="M2395 4808 c-3 -7 -4 -58 -2 -113 l2 -100 53 -3 52 -3 0 60 0 61 60
0 60 0 0 55 0 55 -110 0 c-79 0 -112 -4 -115 -12z"/>
<path d="M3220 4766 l0 -56 56 0 55 0 -3 53 -3 52 -52 3 -53 3 0 -55z"/>
<path d="M3927 4813 c-4 -3 -7 -28 -7 -55 l0 -48 63 0 62 0 0 -117 0 -118 50
0 50 0 3 173 2 172 -108 0 c-60 0 -112 -3 -115 -7z"/>
<path d="M4280 4705 l0 -116 53 3 52 3 0 110 0 110 -52 3 -53 3 0 -116z"/>
<path d="M1920 4645 l0 -55 55 0 55 0 0 55 0 55 -55 0 -55 0 0 -55z"/>
<path d="M2160 4645 l0 -55 55 0 55 0 0 55 0 55 -55 0 -55 0 0 -55z"/>
<path d="M2630 4645 l0 -55 55 0 55 0 0 55 0 55 -55 0 -55 0 0 -55z"/>
<path d="M2864 4687 c-3 -8 -4 -32 -2 -53 l3 -39 55 0 55 0 0 50 0 50 -53 3
c-38 2 -54 -1 -58 -11z"/>
<path d="M3100 4641 l0 -60 -34 6 c-19 3 -46 3 -60 -1 -26 -6 -26 -7 -26 -116
l0 -110 55 0 55 0 0 55 0 55 65 0 65 0 0 -55 0 -55 55 0 55 0 -3 113 -2 112
-57 0 -58 -1 0 58 0 58 -55 0 -55 0 0 -59z"/>
<path d="M3334 4687 c-3 -8 -4 -32 -2 -53 l3 -39 55 0 55 0 0 50 0 50 -53 3
c-38 2 -54 -1 -58 -11z"/>
<path d="M3810 4645 l0 -55 55 0 55 0 0 55 0 55 -55 0 -55 0 0 -55z"/>
<path d="M2052 4581 c-9 -5 -12 -25 -10 -57 l3 -49 53 -3 53 -3 -3 58 -3 58
-40 2 c-22 2 -46 -1 -53 -6z"/>
<path d="M2286 4577 c-13 -10 -17 -24 -14 -57 l3 -45 55 0 55 0 3 53 c2 28 -1
52 -5 53 -4 0 -24 2 -44 4 -20 3 -44 -1 -53 -8z"/>
<path d="M2763 4583 c-8 -3 -13 -25 -13 -59 l0 -55 53 3 52 3 3 52 c2 43 0 52
-15 56 -24 6 -65 6 -80 0z"/>
<path d="M986 4463 c-3 -4 -6 -82 -6 -174 l0 -168 115 0 115 0 0 54 0 55 -60
0 -60 0 0 65 0 65 65 0 65 0 0 -60 0 -60 58 0 58 0 -1 -57 0 -58 113 -2 112
-3 0 60 0 60 60 0 60 0 0 55 0 55 -120 0 -120 0 5 43 c8 81 21 77 -230 76
-123 0 -226 -3 -229 -6z"/>
<path d="M1690 4416 l0 -56 56 0 55 0 -3 53 -3 52 -52 3 -53 3 0 -55z"/>
<path d="M1927 4463 c-4 -3 -7 -28 -7 -55 l0 -48 55 0 55 0 0 55 0 55 -48 0
c-27 0 -52 -3 -55 -7z"/>
<path d="M2637 4463 c-4 -3 -7 -28 -7 -55 l0 -48 55 0 55 0 0 55 0 55 -48 0
c-27 0 -52 -3 -55 -7z"/>
<path d="M4397 4462 c-3 -4 -4 -58 -3 -120 l1 -112 -57 0 -58 0 0 -55 0 -55
59 0 58 0 -3 -39 c-5 -71 2 -81 57 -81 l49 0 2 208 c1 218 1 242 -1 255 -1 9
-98 9 -104 -1z"/>
<path d="M4750 4415 l0 -55 58 0 57 0 0 -65 1 -65 -58 0 -58 0 0 -55 0 -55
113 3 112 2 0 118 0 117 58 0 57 0 0 54 0 55 -170 0 -170 0 0 -54z"/>
<path d="M5220 4416 l0 -56 56 0 55 0 -3 53 -3 52 -52 3 -53 3 0 -55z"/>
<path d="M4043 4238 l2 -113 53 -3 52 -3 0 115 0 116 -55 0 -55 0 3 -112z"/>
<path d="M5100 4235 l0 -115 55 0 55 0 0 115 0 115 -55 0 -55 0 0 -115z"/>
<path d="M1690 4175 l0 -55 55 0 55 0 0 55 0 55 -55 0 -55 0 0 -55z"/>
<path d="M1922 4060 l0 -170 175 -2 176 -3 1 -55 1 -55 55 0 55 0 0 115 0 115
63 0 62 0 0 -57 0 -58 60 0 60 0 0 -65 0 -65 -120 0 -120 0 3 -112 2 -113 50
0 50 0 3 58 3 57 119 0 120 0 0 60 0 60 60 0 60 0 0 60 0 60 60 0 60 0 0 -65
0 -65 -60 0 -59 0 2 -112 2 -113 55 0 55 0 0 58 -1 57 58 0 58 0 0 60 0 60 60
0 60 0 0 230 0 230 -116 0 -115 0 3 -52 3 -53 58 -3 57 -3 0 -59 0 -60 -120 0
-120 0 0 55 c0 50 -2 55 -26 61 -14 4 -41 4 -60 1 l-34 -6 0 60 0 59 -55 0
-55 0 0 -57 0 -58 -169 2 c-194 2 -197 1 -189 -72 l6 -45 -64 0 -63 0 -3 58
-3 57 -57 0 -58 -1 0 58 0 58 -54 0 -54 0 0 -170z"/>
<path d="M2160 4174 l0 -55 53 3 52 3 3 53 3 52 -55 0 -56 0 0 -56z"/>
<path d="M1238 4113 c-15 -4 -18 -15 -18 -59 l0 -55 53 3 52 3 0 55 0 55 -35
1 c-19 1 -43 -1 -52 -3z"/>
<path d="M1574 4106 c-2 -6 -3 -110 -2 -231 l3 -220 110 0 110 0 3 53 3 52
-60 0 -61 0 0 65 0 65 61 0 60 0 -3 53 -3 52 -57 3 -57 3 -3 57 -3 57 -48 1
c-28 1 -51 -4 -53 -10z"/>
<path d="M3933 4112 c-8 -5 -12 -43 -12 -115 l0 -108 57 3 56 3 -3 105 c-1 58
-3 106 -4 107 -7 7 -84 11 -94 5z"/>
<path d="M4637 4114 c-4 -4 -7 -31 -7 -60 l0 -53 -57 -3 -58 -3 -2 -112 -3
-113 55 0 55 0 0 60 0 60 65 0 65 0 0 -60 0 -60 55 0 56 0 -3 113 -3 112 -55
0 -55 0 -5 60 -5 60 -45 3 c-25 2 -49 0 -53 -4z"/>
<path d="M4986 4113 c-3 -4 -6 -55 -6 -115 l0 -108 55 0 56 0 -3 113 -3 112
-47 2 c-25 1 -49 -1 -52 -4z"/>
<path d="M4160 3940 l0 -170 55 0 55 0 0 60 0 60 61 0 60 0 -3 53 -3 52 -59 1
-60 1 3 57 2 56 -55 0 -56 0 0 -170z"/>
<path d="M1335 3990 c-4 -6 -5 -32 -4 -58 l3 -47 -57 -3 -57 -3 0 -55 0 -55
112 3 113 3 1 100 c0 55 -1 106 -4 113 -5 15 -98 17 -107 2z"/>
<path d="M5220 3885 l0 -115 55 0 55 0 0 115 0 115 -55 0 -55 0 0 -115z"/>
<path d="M980 3825 l0 -55 55 0 55 0 0 55 0 55 -55 0 -55 0 0 -55z"/>
<path d="M3450 3825 l0 -55 60 0 60 0 0 -61 0 -60 53 3 52 3 3 113 3 112 -116
0 -115 0 0 -55z"/>
<path d="M1922 3708 l3 -53 53 -3 52 -3 0 55 0 56 -56 0 -55 0 3 -52z"/>
<path d="M2160 3645 l0 -114 -57 -3 -58 -3 -3 -52 -3 -53 60 0 61 0 0 -60 0
-60 55 0 55 0 0 60 0 59 58 3 57 3 0 50 0 50 -57 3 -58 3 -1 57 c0 31 0 83 1
115 l1 57 -55 0 -56 0 0 -115z"/>
<path d="M3220 3705 l0 -56 113 3 112 3 3 53 3 52 -115 0 -116 0 0 -55z"/>
<path d="M3810 3645 l0 -115 -60 0 -60 0 0 -115 0 -115 55 0 55 0 0 60 0 60
63 0 63 0 -1 -57 0 -58 118 -3 117 -3 0 -59 0 -59 -57 -3 -58 -3 0 -55 0 -55
150 -2 c83 -1 160 0 172 3 22 4 22 5 20 232 l-2 227 -52 3 -53 3 0 -60 0 -61
-65 0 -65 0 0 60 0 60 -115 0 -115 0 0 55 c0 30 0 58 0 61 0 4 26 7 58 8 l57
1 0 50 0 50 -112 3 -113 3 0 -116z"/>
<path d="M4280 3704 l0 -55 53 3 52 3 3 53 3 52 -55 0 -56 0 0 -56z"/>
<path d="M4630 3704 l0 -55 53 3 52 3 3 53 3 52 -55 0 -56 0 0 -56z"/>
<path d="M4982 3708 l3 -53 53 -3 52 -3 0 55 0 56 -56 0 -55 0 3 -52z"/>
<path d="M1107 3644 c-4 -4 -7 -58 -7 -121 l0 -113 -60 0 -61 0 3 -112 3 -113
53 -3 52 -3 0 63 0 63 60 -3 60 -4 0 61 0 61 61 0 60 0 -3 53 -3 52 -57 3 -57
3 -3 57 -3 57 -45 3 c-25 2 -49 0 -53 -4z"/>
<path d="M1454 3636 c-3 -7 -4 -33 -2 -57 l3 -44 53 -3 52 -3 0 60 0 61 -50 0
c-34 0 -52 -5 -56 -14z"/>
<path d="M3454 3636 c-3 -9 -4 -36 -2 -61 l3 -45 -117 0 -118 0 0 -60 0 -60
-60 0 -61 0 3 -112 3 -113 50 0 50 0 3 58 3 57 122 0 122 0 0 -57 0 -58 53 -3
52 -3 -2 233 -3 233 -48 3 c-35 2 -49 -1 -53 -12z"/>
<path d="M4514 3637 c-3 -8 -4 -34 -2 -58 l3 -44 50 0 50 0 0 55 0 55 -48 3
c-34 2 -49 -1 -53 -11z"/>
<path d="M4868 3640 c-1 -5 -2 -57 0 -115 l3 -105 54 0 54 0 3 -57 3 -58 118
0 117 0 0 -63 0 -63 53 3 52 3 2 113 3 112 -60 0 -60 0 0 60 0 60 -117 0 -118
0 4 51 c2 36 -1 54 -10 60 -19 12 -97 11 -101 -1z"/>
<path d="M1570 3475 l0 -55 115 0 115 0 0 55 0 55 -115 0 -115 0 0 -55z"/>
<path d="M2510 3470 l0 -60 -61 0 -61 0 4 -60 4 -59 -60 -3 -61 -3 0 -50 0
-50 55 -1 c30 -1 56 -4 58 -8 1 -3 2 -31 2 -61 l0 -54 -57 -3 -58 -3 0 -50 0
-50 60 -5 60 -5 0 -60 0 -60 -60 -5 -60 -5 0 -50 0 -50 173 -2 172 -2 0 174 0
175 -60 0 -60 0 0 120 0 120 60 0 60 0 0 115 0 115 -55 0 -55 0 0 -60z"/>
<path d="M2750 3476 l0 -56 56 0 55 0 -3 53 -3 52 -52 3 -53 3 0 -55z"/>
<path d="M4630 3416 l0 -116 55 0 56 0 -3 113 -3 112 -52 3 -53 3 0 -115z"/>
<path d="M1807 3403 c-2 -5 -4 -32 -3 -60 l1 -53 -57 0 -58 0 0 -55 0 -55 113
3 112 2 0 58 0 57 58 0 57 0 0 55 0 55 -109 0 c-61 0 -112 -3 -114 -7z"/>
<path d="M1220 3234 l0 -55 115 3 114 3 3 -60 3 -60 110 0 110 0 3 59 3 58
-60 -4 -61 -4 0 58 0 58 -170 0 -170 0 0 -56z"/>
<path d="M2042 3238 l3 -53 53 -3 52 -3 0 55 0 56 -56 0 -55 0 3 -52z"/>
<path d="M2632 3238 l3 -53 57 -3 57 -3 3 -57 3 -57 113 0 112 0 0 -57 0 -58
55 0 55 0 0 116 0 116 -57 -2 c-32 -1 -84 -2 -115 -1 l-58 1 0 55 0 55 -116 0
-115 0 3 -52z"/>
<path d="M4512 3238 l3 -53 53 -3 52 -3 0 55 0 56 -56 0 -55 0 3 -52z"/>
<path d="M3220 3065 l0 -115 58 0 58 0 -1 -57 0 -58 60 -5 60 -5 0 -55 0 -55
53 -3 52 -3 0 60 0 61 65 0 65 0 0 -61 0 -60 53 3 52 3 3 58 3 57 59 0 60 0
-3 113 -2 112 -52 3 -53 3 0 -60 0 -61 -65 0 -65 0 0 60 0 60 -117 0 -118 0 0
57 0 58 -112 2 -113 2 0 -114z"/>
<path d="M3694 3167 c-3 -8 -4 -34 -2 -58 l3 -44 50 0 50 0 0 55 0 55 -48 3
c-34 2 -49 -1 -53 -11z"/>
<path d="M4634 3166 c-3 -8 -4 -33 -2 -57 l3 -44 58 0 57 1 0 -58 0 -58 59 0
59 0 -1 -57 -2 -58 55 0 55 0 0 110 0 110 -55 0 -55 0 -5 60 -5 60 -108 2
c-83 2 -109 -1 -113 -11z"/>
<path d="M5104 3167 c-3 -8 -4 -34 -2 -58 l3 -44 50 0 50 0 0 55 0 55 -48 3
c-34 2 -49 -1 -53 -11z"/>
<path d="M1220 3006 l0 -56 56 0 55 0 -3 53 -3 52 -52 3 -53 3 0 -55z"/>
<path d="M1690 3005 l0 -55 116 0 115 0 -3 53 -3 52 -112 3 -113 3 0 -56z"/>
<path d="M1570 2885 l0 -55 55 0 55 0 0 55 0 55 -55 0 -55 0 0 -55z"/>
<path d="M2160 2885 l0 -55 55 0 55 0 0 55 0 55 -55 0 -55 0 0 -55z"/>
<path d="M2750 2885 l0 -56 113 3 112 3 0 50 0 50 -112 3 -113 3 0 -56z"/>
<path d="M4040 2885 l0 -55 55 0 55 0 0 55 0 55 -55 0 -55 0 0 -55z"/>
<path d="M4395 2928 c-2 -7 -3 -58 -2 -113 l2 -100 53 -3 c28 -2 53 1 53 5 5
29 7 191 3 206 -4 13 -16 17 -55 17 -31 0 -51 -5 -54 -12z"/>
<path d="M5100 2824 l0 -115 53 3 52 3 3 113 3 112 -56 0 -55 0 0 -116z"/>
<path d="M1100 2765 l0 -55 60 0 60 0 0 -180 0 -180 -60 0 -60 0 0 -55 0 -55
60 0 60 0 0 -55 0 -55 115 0 115 0 0 -60 0 -60 236 0 236 0 -4 60 -4 60 63 0
63 0 0 -60 0 -60 60 0 60 0 0 -60 0 -60 56 0 55 0 -1 58 c-1 31 -1 85 -1 119
l1 62 58 3 57 3 0 113 0 112 58 0 57 0 0 116 0 115 -52 -3 -53 -3 0 -55 0 -55
-60 -5 -60 -5 0 -112 0 -113 -55 -1 c-30 0 -85 -1 -123 -2 l-67 -2 0 58 0 57
-55 0 -55 0 0 -57 0 -58 -57 0 -58 0 1 -57 1 -58 -123 0 -124 0 0 61 0 60 -57
-1 c-32 -1 -83 -1 -115 -1 l-56 1 -4 60 -3 60 56 0 c67 0 67 -1 64 135 l-2 90
-57 3 -56 3 0 114 0 115 -115 0 -115 0 0 -55z"/>
<path d="M1690 2764 l0 -55 53 3 52 3 3 53 3 52 -55 0 -56 0 0 -56z"/>
<path d="M2042 2768 l3 -53 50 0 50 0 3 53 3 52 -56 0 -56 0 3 -52z"/>
<path d="M3923 2533 l2 -288 55 0 55 0 1 288 2 287 -58 0 -58 0 1 -287z"/>
<path d="M4630 2765 l0 -55 113 3 112 2 3 53 3 52 -115 0 -116 0 0 -55z"/>
<path d="M987 2703 c-4 -3 -7 -55 -7 -115 l0 -108 55 0 55 0 0 115 0 115 -48
0 c-27 0 -52 -3 -55 -7z"/>
<path d="M1457 2703 c-4 -3 -7 -28 -7 -54 0 -45 1 -47 31 -51 17 -3 42 -3 55
0 22 4 24 9 24 58 l0 54 -48 0 c-27 0 -52 -3 -55 -7z"/>
<path d="M1927 2703 c-4 -3 -7 -28 -7 -55 l0 -48 55 0 55 0 0 55 0 55 -48 0
c-27 0 -52 -3 -55 -7z"/>
<path d="M2750 2650 l0 -60 -60 0 -60 0 0 -115 0 -116 113 3 112 3 3 58 3 57
59 0 58 0 4 -65 3 -65 -63 0 -63 0 3 -52 3 -53 230 0 230 0 3 53 3 52 -60 0
-61 0 0 125 0 125 61 0 60 0 -3 53 -3 52 -110 0 -110 0 -3 -57 -3 -58 -62 0
-62 0 0 57 0 58 -112 3 -113 3 0 -61z"/>
<path d="M3577 2704 c-4 -4 -7 -29 -7 -55 0 -45 1 -47 31 -51 17 -3 42 -3 56
0 22 4 24 8 21 56 l-3 51 -45 3 c-25 2 -49 0 -53 -4z"/>
<path d="M4280 2651 l0 -61 -60 0 -60 0 0 -115 0 -115 55 0 55 0 0 60 0 60 60
0 60 0 -3 113 -2 112 -52 3 -53 3 0 -60z"/>
<path d="M4987 2704 c-4 -4 -7 -56 -7 -116 l0 -108 55 0 56 0 -3 113 -3 112
-45 3 c-25 2 -49 0 -53 -4z"/>
<path d="M1690 2535 l0 -56 113 3 112 3 0 50 0 50 -112 3 -113 3 0 -56z"/>
<path d="M2040 2535 l0 -55 55 0 55 0 0 55 0 55 -55 0 -55 0 0 -55z"/>
<path d="M3334 2577 c-3 -8 -4 -32 -2 -53 l3 -39 55 0 55 0 0 50 0 50 -53 3
c-38 2 -54 -1 -58 -11z"/>
<path d="M4511 2475 l0 -115 54 0 55 0 0 60 0 60 65 0 65 0 0 -60 0 -60 55 0
55 0 0 115 0 115 -175 0 -174 0 0 -115z"/>
<path d="M5220 2475 l0 -115 55 0 55 0 0 115 0 115 -55 0 -55 0 0 -115z"/>
<path d="M3571 2354 l0 -115 52 3 52 3 2 113 3 112 -55 0 -54 0 0 -116z"/>
<path d="M1572 2298 l3 -53 110 0 110 0 3 53 3 52 -116 0 -116 0 3 -52z"/>
<path d="M2510 2295 l0 -55 55 0 55 0 0 55 0 55 -55 0 -55 0 0 -55z"/>
<path d="M4280 2294 l0 -55 53 3 52 3 3 53 3 52 -55 0 -56 0 0 -56z"/>
<path d="M4630 2295 l0 -55 55 0 55 0 0 55 0 55 -55 0 -55 0 0 -55z"/>
<path d="M987 2233 c-4 -3 -7 -28 -7 -54 0 -45 1 -47 33 -50 70 -8 77 -3 77
57 l0 54 -48 0 c-27 0 -52 -3 -55 -7z"/>
<path d="M2630 2059 l0 -181 -42 2 c-85 5 -78 20 -78 -170 l0 -170 175 0 175
0 0 55 0 55 -60 0 -60 0 0 60 0 59 58 3 57 3 0 55 0 55 60 5 60 5 0 110 0 110
-55 0 -55 0 0 -57 1 -58 -63 0 -63 0 0 65 0 65 61 0 60 0 -3 53 -3 52 -112 2
-113 3 0 -181z"/>
<path d="M3456 2232 c-3 -5 -5 -56 -5 -115 l0 -107 54 0 55 0 0 115 0 115 -49
0 c-28 0 -52 -4 -55 -8z"/>
<path d="M3689 2236 c-2 -2 -3 -81 -1 -175 l3 -171 54 0 55 0 0 60 0 60 63 0
62 0 0 -65 0 -65 -58 0 -58 0 3 -52 3 -53 165 0 165 0 0 58 0 57 68 0 67 0 0
-175 0 -175 118 0 117 0 0 -117 0 -118 50 0 50 0 0 58 0 57 68 0 67 0 0 -115
0 -115 55 0 55 0 0 58 0 57 57 0 58 0 2 173 2 174 -59 -4 -60 -3 -1 58 c0 73
0 171 0 247 l1 60 63 0 62 0 0 -57 0 -58 118 0 117 0 0 -182 0 -183 -60 0 -60
0 0 -55 0 -55 115 0 114 0 0 290 0 290 -59 0 -60 0 0 60 0 60 -117 0 -118 0 0
57 0 58 -112 2 -113 3 0 -60 0 -60 -65 0 -65 0 0 61 0 60 -52 -3 -53 -3 -3
-57 -3 -58 -114 0 -115 0 0 -60 0 -60 -65 0 -65 0 0 65 0 65 61 0 60 0 -3 53
-3 52 -110 0 -110 0 -3 -57 -3 -58 -62 0 -62 0 0 57 0 58 -111 2 c-61 2 -113
1 -115 -1z m1061 -406 l0 -180 -182 0 -183 0 0 180 0 180 183 0 182 0 0 -180z"/>
<path d="M4512 1828 l3 -53 50 0 50 0 3 53 3 52 -56 0 -56 0 3 -52z"/>
<path d="M5220 2186 l0 -56 56 0 55 0 -3 53 -3 52 -52 3 -53 3 0 -55z"/>
<path d="M2394 2106 c-3 -8 -4 -31 -2 -52 l3 -39 53 -3 52 -3 0 55 0 56 -50 0
c-34 0 -52 -5 -56 -14z"/>
<path d="M3220 2065 l0 -55 55 0 55 0 0 55 0 55 -55 0 -55 0 0 -55z"/>
<path d="M1920 1945 l0 -55 55 0 55 0 0 55 0 55 -55 0 -55 0 0 -55z"/>
<path d="M3103 1888 l2 -113 50 0 50 0 3 113 3 112 -56 0 -55 0 3 -112z"/>
<path d="M984 1881 c-2 -2 -4 -186 -4 -408 l0 -403 410 0 410 0 0 405 0 405
-406 2 c-223 2 -408 1 -410 -1z m704 -403 l-3 -293 -295 0 -295 0 -3 293 -2
292 300 0 300 0 -2 -292z"/>
<path d="M1207 1653 c-3 -5 -4 -87 -3 -183 l1 -175 183 0 184 0 0 180 1 180
-181 3 c-99 1 -183 -1 -185 -5z"/>
<path d="M3487 1882 l-38 -3 3 -52 3 -52 58 -3 57 -3 0 -59 0 -60 -62 0 -63 0
0 57 0 58 -55 0 -55 0 0 -57 1 -58 -58 0 -58 0 0 -116 0 -115 53 3 52 3 0 58
0 57 65 0 65 0 0 -57 0 -58 117 -3 117 -3 3 -57 3 -57 50 0 50 0 0 58 0 57 62
0 62 0 0 115 0 115 -54 0 -55 0 0 -60 0 -60 -67 0 -68 0 3 175 3 175 -33 1
c-18 0 -53 1 -78 2 -25 1 -62 1 -83 -1z"/>
<path d="M2274 1757 c-3 -8 -4 -32 -2 -53 l3 -39 58 -3 58 -3 -3 53 -3 53 -53
3 c-38 2 -54 -1 -58 -11z"/>
<path d="M2986 1762 c-3 -5 -5 -56 -5 -115 l0 -107 54 0 55 0 0 115 0 115 -49
0 c-28 0 -52 -4 -55 -8z"/>
<path d="M2042 1590 l3 -60 -62 0 -62 0 0 -230 0 -230 55 0 54 0 0 175 0 175
68 0 67 0 -3 -175 -3 -176 113 3 113 3 0 58 -1 57 179 0 178 0 -3 113 -3 112
-50 0 -50 0 -3 -57 -3 -58 -179 0 -180 0 -1 58 c0 31 0 83 1 115 l1 57 -60 0
-61 0 0 60 0 60 -56 0 -56 0 4 -60z"/>
<path d="M4043 1418 l2 -113 50 0 50 0 0 58 0 57 63 0 62 0 0 55 0 55 -115 0
-115 0 3 -112z"/>
<path d="M2871 1410 c-8 -4 -11 -26 -9 -56 l3 -49 170 0 170 0 0 55 0 55 -161
1 c-89 1 -167 -2 -173 -6z"/>
<path d="M3342 1411 c-9 -5 -12 -25 -10 -57 l3 -49 55 0 55 0 3 49 c4 56 -5
66 -58 66 -19 0 -41 -4 -48 -9z"/>
<path d="M3570 1245 l0 -55 55 0 55 0 0 55 0 55 -55 0 -55 0 0 -55z"/>
<path d="M3810 1245 l0 -55 58 0 58 0 -4 -61 -4 -60 58 3 59 3 0 110 0 110
-112 3 -113 3 0 -56z"/>
<path d="M4160 1185 l0 -115 55 0 55 0 0 115 0 115 -55 0 -55 0 0 -115z"/>
<path d="M4986 1292 c-3 -5 -5 -56 -5 -115 l0 -107 174 0 175 0 0 55 0 55
-120 0 -120 0 0 60 0 60 -49 0 c-28 0 -52 -4 -55 -8z"/>
<path d="M2750 1125 l0 -55 230 0 230 0 0 55 0 55 -230 0 -230 0 0 -55z"/>
<path d="M3332 1128 l3 -53 55 0 55 0 0 50 0 50 -58 3 -58 3 3 -53z"/>
<path d="M4510 1125 l0 -55 55 0 55 0 0 55 0 55 -55 0 -55 0 0 -55z"/>
<path d="M1225 715 c-14 -13 -25 -32 -25 -41 0 -18 131 -255 158 -286 9 -11
29 -18 48 -18 26 0 38 7 57 33 51 68 147 245 147 270 0 56 -70 88 -107 49 -10
-10 -34 -46 -53 -80 -19 -34 -38 -62 -42 -62 -4 0 -22 25 -40 56 -63 107 -97
126 -143 79z"/>
<path d="M4483 643 c-25 -5 -73 -57 -73 -79 0 -25 49 -16 76 14 23 26 25 26
39 8 20 -27 0 -61 -74 -127 -33 -28 -61 -62 -64 -75 -4 -24 -4 -24 94 -24 99
0 99 0 99 25 0 23 -3 25 -52 25 l-52 0 57 56 c60 58 73 87 63 130 -6 23 -59
57 -83 53 -4 -1 -18 -4 -30 -6z"/>
<path d="M1616 584 c-9 -24 -7 -187 3 -202 5 -8 17 -12 27 -10 17 3 19 14 22
93 2 50 0 100 -3 113 -6 26 -40 30 -49 6z"/>
<path d="M1718 589 c-15 -8 -18 -25 -18 -109 0 -114 4 -120 84 -120 57 0 76 8
76 31 0 15 -9 18 -52 21 -46 3 -53 6 -56 25 -3 20 2 22 50 25 45 3 53 6 53 23
0 17 -8 21 -50 25 -36 4 -50 9 -50 20 0 11 13 16 48 18 50 3 74 25 46 43 -19
12 -110 11 -131 -2z"/>
<path d="M1881 586 c-12 -14 -2 -27 31 -39 14 -5 18 -21 20 -89 3 -75 5 -83
23 -83 18 0 20 8 23 83 3 78 4 83 27 92 15 6 25 17 25 30 0 18 -6 20 -69 20
-46 0 -72 -5 -80 -14z"/>
<path d="M2099 585 c-37 -20 -63 -78 -54 -123 8 -43 52 -87 97 -96 54 -11 55
9 4 58 -25 25 -46 49 -46 54 0 21 43 62 64 62 25 0 56 -28 56 -52 0 -11 -8
-13 -31 -10 l-31 5 25 -50 c14 -27 32 -55 41 -62 20 -17 53 -6 38 12 -7 8 -6
20 3 37 31 55 8 136 -47 166 -30 17 -87 17 -119 -1z"/>
<path d="M2312 478 c3 -109 4 -113 26 -116 20 -3 22 1 23 40 3 147 2 143 28
146 12 2 34 1 48 -3 19 -4 24 -11 21 -33 -3 -25 -6 -27 -40 -24 -21 2 -38 1
-38 -2 0 -15 64 -107 80 -116 43 -23 52 -5 20 40 -19 27 -19 28 -1 44 27 25
34 62 17 95 -19 36 -32 41 -117 41 l-70 0 3 -112z"/>
<path d="M4667 519 c-63 -82 -62 -99 3 -99 49 0 50 -1 50 -30 0 -26 3 -30 29
-30 24 0 31 5 36 29 3 17 12 31 19 33 10 2 5 18 -16 55 -31 54 -48 60 -48 17
0 -19 -5 -24 -26 -24 -27 0 -26 3 9 52 18 25 18 58 -1 58 -4 0 -29 -28 -55
-61z"/>
<path d="M3389 543 c-12 -3 -20 -25 -29 -83 -7 -44 -13 -83 -14 -87 -2 -14 44
-15 48 -1 3 7 10 39 16 70 8 42 16 59 31 63 25 8 51 -12 45 -34 -2 -9 -7 -37
-11 -63 -6 -46 -5 -48 18 -48 23 0 26 5 37 71 18 103 8 119 -67 118 -32 -1
-65 -3 -74 -6z"/>
<path d="M3580 535 c-18 -21 -7 -28 42 -29 57 -1 60 -22 4 -30 -70 -11 -100
-68 -54 -100 23 -16 104 -22 124 -8 6 4 14 30 18 57 4 28 10 59 12 71 9 35
-21 54 -80 54 -36 0 -58 -5 -66 -15z m78 -113 c4 -29 -24 -40 -46 -18 -16 16
-16 18 3 32 24 18 39 13 43 -14z"/>
<path d="M3779 543 c-11 -3 -20 -32 -33 -106 -10 -56 -20 -114 -23 -129 -5
-25 -2 -28 20 -28 26 0 37 16 37 56 0 22 4 24 44 24 62 0 96 30 103 90 4 36 1
51 -17 73 -18 23 -28 27 -68 26 -26 -1 -54 -3 -63 -6z m83 -44 c16 -9 19 -17
14 -41 -8 -42 -23 -58 -54 -58 -23 0 -24 2 -19 46 2 26 11 50 18 55 18 11 17
11 41 -2z"/>
<path d="M3970 530 c-6 -11 -7 -20 -3 -21 4 0 26 -1 47 -2 46 -2 63 -27 19
-27 -42 0 -75 -21 -86 -54 -14 -42 17 -66 88 -66 61 0 61 1 71 95 9 83 -1 95
-72 95 -43 0 -55 -4 -64 -20z m78 -108 c4 -28 -24 -40 -44 -20 -14 13 -14 17
1 32 22 21 39 16 43 -12z"/>
<path d="M4157 532 c-18 -19 -22 -49 -9 -68 4 -6 22 -19 40 -28 18 -9 30 -21
27 -26 -8 -13 -41 -13 -65 0 -14 7 -19 5 -23 -9 -7 -29 12 -41 63 -41 54 0 80
21 80 63 0 21 -9 31 -40 47 -47 24 -44 45 5 36 25 -5 34 -3 39 10 9 23 -10 34
-60 34 -27 0 -46 -6 -57 -18z"/>
</g>
</svg>
