<!DOCTYPE svg PUBLIC "-//W3C//DTD SVG 1.1//EN" "http://www.w3.org/Graphics/SVG/1.1/DTD/svg11.dtd">
<!-- Uploaded to: SVG Repo, www.svgrepo.com, Transformed by: SVG Repo Mixer Tools -->
<svg height="800px" width="800px" version="1.1" id="Capa_1" xmlns="http://www.w3.org/2000/svg" xmlns:xlink="http://www.w3.org/1999/xlink" viewBox="0 0 47.649 47.649" xml:space="preserve" fill="#000000">
<g id="SVGRepo_bgCarrier" stroke-width="0"/>
<g id="SVGRepo_tracerCarrier" stroke-linecap="round" stroke-linejoin="round"/>
<g id="SVGRepo_iconCarrier"> <g> <path style="fill:#ffffff;" d="M0.001,17.921c0,5.324,10.665,9.643,23.823,9.643s23.825-4.319,23.825-9.643v-5.867 c0-5.326-10.667-9.646-23.825-9.646S0.001,6.728,0.001,12.054V17.921z"/> <path style="fill:#ffffff;" d="M46.461,23.521c-3.131,3.848-12.082,6.627-22.637,6.627S4.319,27.369,1.189,23.521 C0.037,22.103,0,21.817,0,23.438v2.933c0,5.324,10.665,9.644,23.823,9.644s23.825-4.32,23.825-9.644c0,0,0-1.313,0-2.933 C47.65,21.818,47.614,22.104,46.461,23.521z"/> <path style="fill:#ffffff;" d="M46.461,32.748c-3.131,3.848-12.082,6.627-22.637,6.627S4.319,36.596,1.189,32.748 C0.037,31.331,0,31.044,0,32.665v2.933c0,5.324,10.665,9.643,23.823,9.643s23.825-4.319,23.825-9.643c0,0,0-1.313,0-2.933 C47.65,31.044,47.614,31.331,46.461,32.748z"/> </g> </g>
</svg>