<!DOCTYPE svg PUBLIC "-//W3C//DTD SVG 1.1//EN" "http://www.w3.org/Graphics/SVG/1.1/DTD/svg11.dtd">
<!-- Uploaded to: SVG Repo, www.svgrepo.com, Transformed by: SVG Repo Mixer Tools -->
<svg fill="#FFFFFF" width="800px" height="800px" viewBox="0 0 1024 1024" xmlns="http://www.w3.org/2000/svg" class="icon" stroke="#FFFFFF">
<g id="SVGRepo_bgCarrier" stroke-width="0"/>
<g id="SVGRepo_tracerCarrier" stroke-linecap="round" stroke-linejoin="round"/>
<g id="SVGRepo_iconCarrier"> <path d="M880 112H144c-17.7 0-32 14.3-32 32v736c0 17.7 14.3 32 32 32h736c17.7 0 32-14.3 32-32V144c0-17.7-14.3-32-32-32zM380 696c-22.1 0-40-17.9-40-40s17.9-40 40-40 40 17.9 40 40-17.9 40-40 40zm0-144c-22.1 0-40-17.9-40-40s17.9-40 40-40 40 17.9 40 40-17.9 40-40 40zm0-144c-22.1 0-40-17.9-40-40s17.9-40 40-40 40 17.9 40 40-17.9 40-40 40zm304 272c0 4.4-3.6 8-8 8H492c-4.4 0-8-3.6-8-8v-48c0-4.4 3.6-8 8-8h184c4.4 0 8 3.6 8 8v48zm0-144c0 4.4-3.6 8-8 8H492c-4.4 0-8-3.6-8-8v-48c0-4.4 3.6-8 8-8h184c4.4 0 8 3.6 8 8v48zm0-144c0 4.4-3.6 8-8 8H492c-4.4 0-8-3.6-8-8v-48c0-4.4 3.6-8 8-8h184c4.4 0 8 3.6 8 8v48z"/> </g>
</svg>